# xmcd CD database file
#
# Track frame offsets:
#	150
#	19410
#	40438
#	61090
#	86198
#	104330
#	126988
#	136298
#	158700
#	181295
#	197503
#	214150
#
# Disc length: 3067 seconds
#
# Revision: 0
# Processed by: cddbd v1.5.1PL0 Copyright (c) Steve Scherf et al.
# Submitted via: CDex 1.51
#
DISCID=aa0bf90c
DTITLE=Misery Loves Co. - Misery Loves Co.
DYEAR=1995
DGENRE=Instrumental Rock
TTITLE0=My Mind Still Speaks
TTITLE1=Kiss You're Boots
TTITLE2=Need Another One
TTITLE3=Sonic Attack
TTITLE4=This Is No Dream
TTITLE5=Happy?
TTITLE6=Scared
TTITLE7=I Swallow
TTITLE8=Private Hell
TTITLE9=The Only Way
TTITLE10=2 Seconds
TTITLE11=Honor, Code, loyalty
EXTD=YEAR: 1995
EXTT0=
EXTT1=
EXTT2=
EXTT3=
EXTT4=
EXTT5=
EXTT6=
EXTT7=
EXTT8=
EXTT9=
EXTT10=
EXTT11=
PLAYORDER=
